<?xml version="1.0" standalone="no"?>
<!DOCTYPE svg PUBLIC "-//W3C//DTD SVG 20010904//EN"
 "http://www.w3.org/TR/2001/REC-SVG-20010904/DTD/svg10.dtd">
<svg version="1.0" xmlns="http://www.w3.org/2000/svg"
 width="94.757553pt" height="91.873749pt" viewBox="0 0 94.757553 91.873749"
 preserveAspectRatio="xMidYMid meet">
<metadata>
Created by potrace 1.12, written by Peter Selinger 2001-2015
</metadata>
<g transform="translate(-2.148551,92.873749) scale(0.100000,-0.100000)"
fill="#000000" stroke="none">
<path d="M449 893 c-20 -32 -24 -54 -27 -145 l-4 -106 -43 -17 c-42 -15 -65
-48 -65 -91 0 -26 31 -44 75 -44 l44 0 3 -132 c3 -117 5 -133 21 -136 15 -3
17 8 17 132 l0 136 35 0 34 0 3 -132 c3 -117 5 -133 21 -136 15 -3 17 8 17
132 l0 136 44 0 c66 0 76 7 76 49 0 47 -10 61 -62 86 l-43 20 -5 112 c-6 132
-22 166 -82 171 -32 3 -38 -1 -59 -35z m101 -172 c0 -98 7 -111 80 -141 16 -7
30 -19 30 -26 0 -11 -29 -14 -150 -14 -136 0 -150 2 -150 18 0 11 16 23 44 35
54 22 66 50 66 148 l0 69 40 0 40 0 0 -89z"/>
<path d="M617 443 c-15 -14 -6 -33 23 -48 41 -21 63 -67 58 -124 -3 -25 -8
-54 -12 -63 -8 -19 -5 -21 47 -33 20 -4 31 -15 39 -35 9 -27 14 -30 52 -30 50
0 83 -21 102 -66 8 -19 22 -34 30 -34 14 0 15 7 11 37 -9 52 -64 103 -111 103
-27 0 -39 7 -56 29 -11 17 -28 32 -38 35 -14 5 -17 18 -17 64 0 67 -24 115
-75 149 -35 25 -43 27 -53 16z"/>
<path d="M312 350 c-18 -11 -42 -36 -53 -55 -13 -22 -31 -37 -48 -40 -86 -18
-151 -82 -167 -166 -4 -19 -12 -37 -17 -40 -5 -4 -7 -14 -4 -23 6 -14 38 -16
282 -16 268 0 275 1 275 20 0 19 -8 20 -247 22 l-248 3 3 30 c7 62 78 125 143
125 35 0 39 3 58 45 19 43 41 60 104 79 9 3 17 12 17 21 0 22 -58 19 -98 -5z"/>
<path d="M443 143 c-18 -6 -16 -30 2 -37 9 -3 18 1 22 10 7 18 -7 33 -24 27z"/>
<path d="M700 30 c0 -19 7 -20 95 -20 88 0 95 1 95 20 0 19 -7 20 -95 20 -88
0 -95 -1 -95 -20z"/>
</g>
</svg>
